# xmcd
#
# Track frame offsets:
#	150
#	17989
#	36320
#	58501
#	71966
#	88807
#	106237
#	122073
#	140878
#	156169
#
# Disc length: 2268 seconds
#
# Revision: 1
# Processed by: cddbd v1.4PL0 Copyright (c) Steve Scherf et al.
# Submitted via: audiograbber 1.80
#
DISCID=9408da0a
DTITLE=Marty Haggard - Ready or Not .... Here He Comes
DYEAR=1900
DGENRE=
TTITLE0=How Great Thou Art
TTITLE1=Ready or Not
TTITLE2=You Move Me
TTITLE3=Deadest Man Alive
TTITLE4=Take My Breath Away
TTITLE5=Home Where I Belong
TTITLE6=Sign of the Times
TTITLE7=That River Ran Dry
TTITLE8=Beulah Land
TTITLE9=Going Home Tonight
EXTD=Christian Country
EXTT0=
EXTT1=
EXTT2=
EXTT3=
EXTT4=
EXTT5=
EXTT6=
EXTT7=
EXTT8=
EXTT9=
PLAYORDER=
